<svg width="14" height="14" viewBox="0 0 14 14" fill="none" xmlns="http://www.w3.org/2000/svg">
<path fill-rule="evenodd" clip-rule="evenodd" d="M10.5 5C10.5 6.933 8.933 8.5 7 8.5C5.067 8.5 3.5 6.933 3.5 5C3.5 3.067 5.067 1.5 7 1.5C8.933 1.5 10.5 3.067 10.5 5ZM8.5 9.7711C10.5286 9.13397 12 7.23882 12 5C12 2.23858 9.76142 0 7 0C4.23858 0 2 2.23858 2 5C2 7.23882 3.47145 9.13397 5.5 9.7711V11H0V14H14V11H8.5V9.7711ZM8 4.86768C8 4.43799 7.41568 3.48966 7.13092 3.07798C7.05885 2.97399 6.94707 2.974 6.875 3.07799C6.59023 3.48967 6 4.43799 6 4.86768C6 5.44355 6.43047 6 7 6C7.56953 6 8 5.44355 8 4.86768Z" fill="white"/>
</svg>
